<svg xmlns="http://www.w3.org/2000/svg" width="1680" height="941" viewBox="0 0 1680 941" role="img" aria-label="Preview of ai-operations-system.render.json"><rect width="100%" height="100%" fill="#ffffff"/><defs><marker id="arrow" viewBox="0 0 10 10" refX="9" refY="5" markerWidth="7" markerHeight="7" orient="auto-start-reverse"><path d="M 0 0 L 10 5 L 0 10 z" fill="context-stroke"/></marker></defs><rect id="canvas_background" x="0" y="0" width="1680" height="941" rx="0" style="fill:#FFFFFF;stroke:none;stroke-width:0"/><rect id="core_goals_panel" x="15" y="122" width="235" height="780" rx="16" style="fill:#FFFFFF;stroke:#F36B00;stroke-width:1.2"/><rect id="executive_management" x="383" y="112" width="936" height="108" rx="12" style="fill:#1554D1;stroke:#1554D1;stroke-width:1.2"/><rect id="ai_operations_squad" x="366" y="249" width="945" height="188" rx="14" style="fill:#1554D1;stroke:#1554D1;stroke-width:1.2"/><rect id="department_matrix" x="315" y="461" width="1027" height="184" rx="12" style="fill:#FBFDFF;stroke:#D7E1F0;stroke-width:1.2"/><rect id="ai_assets_layer" x="315" y="661" width="1027" height="120" rx="12" style="fill:#FBFDFF;stroke:#D7E1F0;stroke-width:1.2"/><rect id="business_outcomes" x="315" y="794" width="1062" height="128" rx="12" style="fill:#FBFDFF;stroke:#D7E1F0;stroke-width:1.2"/><rect id="operating_mechanism" x="1415" y="125" width="235" height="777" rx="16" style="fill:#FFFFFF;stroke:#078C93;stroke-width:1.2"/><line id="goal_flow_1" x1="76" y1="267" x2="76" y2="313" style="fill:none;stroke:#F36B00;stroke-width:2;stroke-dasharray:2 4" /><line id="goal_flow_2" x1="76" y1="412" x2="76" y2="449" style="fill:none;stroke:#F36B00;stroke-width:2;stroke-dasharray:2 4" /><line id="goal_flow_3" x1="76" y1="548" x2="76" y2="593" style="fill:none;stroke:#F36B00;stroke-width:2;stroke-dasharray:2 4" /><line id="goal_flow_4" x1="76" y1="692" x2="76" y2="744" style="fill:none;stroke:#F36B00;stroke-width:2;stroke-dasharray:2 4" /><line id="step_1_to_2" x1="842" y1="220" x2="842" y2="246" style="fill:none;stroke:#1554D1;stroke-width:2" marker-end="url(#arrow)" /><line id="step_2_to_3" x1="842" y1="437" x2="842" y2="458" style="fill:none;stroke:#1554D1;stroke-width:2" marker-end="url(#arrow)" /><line id="step_3_to_4" x1="842" y1="645" x2="842" y2="658" style="fill:none;stroke:#1554D1;stroke-width:2" marker-end="url(#arrow)" /><line id="step_4_to_5" x1="842" y1="781" x2="842" y2="791" style="fill:none;stroke:#1554D1;stroke-width:2" marker-end="url(#arrow)" /><line id="mechanism_flow_1" x1="1558" y1="214" x2="1558" y2="245" style="fill:none;stroke:#078C93;stroke-width:1.8" marker-end="url(#arrow)" /><line id="mechanism_flow_2" x1="1558" y1="302" x2="1558" y2="333" style="fill:none;stroke:#078C93;stroke-width:1.8" marker-end="url(#arrow)" /><line id="mechanism_flow_3" x1="1558" y1="390" x2="1558" y2="421" style="fill:none;stroke:#078C93;stroke-width:1.8" marker-end="url(#arrow)" /><line id="mechanism_flow_4" x1="1558" y1="478" x2="1558" y2="509" style="fill:none;stroke:#078C93;stroke-width:1.8" marker-end="url(#arrow)" /><line id="mechanism_flow_5" x1="1558" y1="566" x2="1558" y2="597" style="fill:none;stroke:#078C93;stroke-width:1.8" marker-end="url(#arrow)" /><line id="mechanism_flow_6" x1="1558" y1="654" x2="1558" y2="685" style="fill:none;stroke:#078C93;stroke-width:1.8" marker-end="url(#arrow)" /><path id="continuous_optimization_loop" d="M 1355 792 L 1373 792 L 1373 299 L 1315 299" style="fill:none;stroke:#1554D1;stroke-width:2;stroke-dasharray:8 5"/><rect id="goal_dev_efficiency_card" x="30" y="168" width="205" height="98" rx="12" style="fill:#FFFFFF;stroke:#E1E5EC;stroke-width:1.2"/><rect id="goal_quality_growth_card" x="30" y="313" width="205" height="98" rx="12" style="fill:#FFFFFF;stroke:#E1E5EC;stroke-width:1.2"/><rect id="goal_org_structure_card" x="30" y="449" width="205" height="98" rx="12" style="fill:#FFFFFF;stroke:#E1E5EC;stroke-width:1.2"/><rect id="goal_total_output_card" x="30" y="593" width="205" height="98" rx="12" style="fill:#FFFFFF;stroke:#E1E5EC;stroke-width:1.2"/><rect id="goal_competitiveness_card" x="30" y="744" width="205" height="98" rx="12" style="fill:#FFFFFF;stroke:#E1E5EC;stroke-width:1.2"/><rect id="executive_strategy_card" x="393" y="161" width="174" height="52" rx="8" style="fill:#FFFFFF;stroke:#FFFFFF;stroke-width:1.2"/><rect id="executive_resources_card" x="577" y="161" width="174" height="52" rx="8" style="fill:#FFFFFF;stroke:#FFFFFF;stroke-width:1.2"/><rect id="executive_decision_card" x="761" y="161" width="174" height="52" rx="8" style="fill:#FFFFFF;stroke:#FFFFFF;stroke-width:1.2"/><rect id="executive_promotion_card" x="945" y="161" width="174" height="52" rx="8" style="fill:#FFFFFF;stroke:#FFFFFF;stroke-width:1.2"/><rect id="executive_supervision_card" x="1129" y="161" width="174" height="52" rx="8" style="fill:#FFFFFF;stroke:#FFFFFF;stroke-width:1.2"/><rect id="ops_scenario_card" x="451" y="325" width="160" height="98" rx="9" style="fill:#FFFFFF;stroke:#DDE6F7;stroke-width:1.2"/><rect id="ops_tooling_card" x="617" y="325" width="160" height="98" rx="9" style="fill:#FFFFFF;stroke:#DDE6F7;stroke-width:1.2"/><rect id="ops_knowledge_card" x="783" y="325" width="160" height="98" rx="9" style="fill:#FFFFFF;stroke:#DDE6F7;stroke-width:1.2"/><rect id="ops_governance_card" x="949" y="325" width="160" height="98" rx="9" style="fill:#FFFFFF;stroke:#DDE6F7;stroke-width:1.2"/><rect id="ops_metrics_card" x="1115" y="325" width="160" height="98" rx="9" style="fill:#FFFFFF;stroke:#DDE6F7;stroke-width:1.2"/><rect id="department_product_card" x="338" y="493" width="156" height="144" rx="10" style="fill:#FFFFFF;stroke:#D7E1F0;stroke-width:1.2"/><rect id="department_engineering_card" x="504" y="493" width="156" height="144" rx="10" style="fill:#FFFFFF;stroke:#D7E1F0;stroke-width:1.2"/><rect id="department_testing_card" x="670" y="493" width="156" height="144" rx="10" style="fill:#FFFFFF;stroke:#D7E1F0;stroke-width:1.2"/><rect id="department_marketing_card" x="836" y="493" width="156" height="144" rx="10" style="fill:#FFFFFF;stroke:#D7E1F0;stroke-width:1.2"/><rect id="department_delivery_card" x="1002" y="493" width="156" height="144" rx="10" style="fill:#FFFFFF;stroke:#D7E1F0;stroke-width:1.2"/><rect id="department_management_card" x="1168" y="493" width="156" height="144" rx="10" style="fill:#FFFFFF;stroke:#D7E1F0;stroke-width:1.2"/><rect id="asset_prompt_card" x="350" y="670" width="96" height="75" rx="8" style="fill:#FFFFFF;stroke:#D7E1F0;stroke-width:1.2"/><rect id="asset_agent_card" x="455" y="670" width="96" height="75" rx="8" style="fill:#FFFFFF;stroke:#D7E1F0;stroke-width:1.2"/><rect id="asset_skill_card" x="560" y="670" width="96" height="75" rx="8" style="fill:#FFFFFF;stroke:#D7E1F0;stroke-width:1.2"/><rect id="asset_knowledge_card" x="665" y="670" width="96" height="75" rx="8" style="fill:#FFFFFF;stroke:#D7E1F0;stroke-width:1.2"/><rect id="asset_sop_card" x="770" y="670" width="96" height="75" rx="8" style="fill:#FFFFFF;stroke:#D7E1F0;stroke-width:1.2"/><rect id="asset_template_card" x="875" y="670" width="96" height="75" rx="8" style="fill:#FFFFFF;stroke:#D7E1F0;stroke-width:1.2"/><rect id="asset_case_card" x="980" y="670" width="96" height="75" rx="8" style="fill:#FFFFFF;stroke:#D7E1F0;stroke-width:1.2"/><rect id="asset_evaluation_card" x="1085" y="670" width="96" height="75" rx="8" style="fill:#FFFFFF;stroke:#D7E1F0;stroke-width:1.2"/><rect id="asset_security_card" x="1190" y="670" width="96" height="75" rx="8" style="fill:#FFFFFF;stroke:#D7E1F0;stroke-width:1.2"/><rect id="kpi_time_card" x="355" y="805" width="150" height="58" rx="9" style="fill:#FFFFFF;stroke:#D7E1F0;stroke-width:1.2"/><rect id="kpi_quality_card" x="521" y="805" width="150" height="58" rx="9" style="fill:#FFFFFF;stroke:#D7E1F0;stroke-width:1.2"/><rect id="kpi_cycle_card" x="687" y="805" width="150" height="58" rx="9" style="fill:#FFFFFF;stroke:#D7E1F0;stroke-width:1.2"/><rect id="kpi_reuse_card" x="853" y="805" width="150" height="58" rx="9" style="fill:#FFFFFF;stroke:#D7E1F0;stroke-width:1.2"/><rect id="kpi_cost_card" x="1019" y="805" width="150" height="58" rx="9" style="fill:#FFFFFF;stroke:#D7E1F0;stroke-width:1.2"/><rect id="kpi_response_card" x="1185" y="805" width="150" height="58" rx="9" style="fill:#FFFFFF;stroke:#D7E1F0;stroke-width:1.2"/><rect id="weekly_sync_meeting" x="1433" y="751" width="200" height="102" rx="12" style="fill:#FFFFFF;stroke:#8FC8CE;stroke-width:1.2"/><rect id="core_goals_header" x="30" y="97" width="202" height="48" rx="12" style="fill:#F36B00;stroke:#F36B00;stroke-width:1"/><rect id="step_1_badge" x="287" y="112" width="43" height="44" rx="8" style="fill:#1554D1;stroke:#1554D1;stroke-width:1"/><rect id="step_2_badge" x="287" y="249" width="43" height="44" rx="8" style="fill:#1554D1;stroke:#1554D1;stroke-width:1"/><rect id="step_3_badge" x="287" y="461" width="43" height="44" rx="8" style="fill:#1554D1;stroke:#1554D1;stroke-width:1"/><rect id="step_4_badge" x="287" y="661" width="43" height="44" rx="8" style="fill:#1554D1;stroke:#1554D1;stroke-width:1"/><rect id="step_5_badge" x="287" y="794" width="43" height="44" rx="8" style="fill:#1554D1;stroke:#1554D1;stroke-width:1"/><rect id="direct_to_top_tag" x="1120" y="258" width="108" height="36" rx="18" style="fill:#F36B00;stroke:#F36B00;stroke-width:1"/><rect id="weekly_review_tag" x="370" y="389" width="92" height="34" rx="17" style="fill:#F36B00;stroke:#F36B00;stroke-width:1"/><rect id="matrix_label" x="350" y="455" width="130" height="38" rx="5" style="fill:#0A45B8;stroke:#0A45B8;stroke-width:1"/><rect id="final_goal_banner" x="355" y="870" width="1002" height="44" rx="7" style="fill:#0A45B8;stroke:#0A45B8;stroke-width:1"/><rect id="mechanism_header" x="1435" y="99" width="200" height="46" rx="12" style="fill:#078C93;stroke:#078C93;stroke-width:1"/><g id="goal_dev_efficiency_icon" transform="translate(48 190) scale(1.875 1.875)" fill="none" stroke="#F36B00" stroke-width="2" stroke-linecap="round" stroke-linejoin="round"><path d="m18 16 4-4-4-4" />
  <path d="m6 8-4 4 4 4" />
  <path d="m14.5 4-5 16" /></g><g id="goal_quality_growth_icon" transform="translate(48 335) scale(1.875 1.875)" fill="none" stroke="#F36B00" stroke-width="2" stroke-linecap="round" stroke-linejoin="round"><path d="M12 16v5" />
  <path d="M16 14.639V21" />
  <path d="M20 10.656V21" />
  <path d="m22 3-8.646 8.646a.5.5 0 0 1-.708 0L9.354 8.354a.5.5 0 0 0-.707 0L2 15" />
  <path d="M4 18.463V21" />
  <path d="M8 14.656V21" /></g><g id="goal_org_structure_icon" transform="translate(48 471) scale(1.875 1.875)" fill="none" stroke="#F36B00" stroke-width="2" stroke-linecap="round" stroke-linejoin="round"><rect x="16" y="16" width="6" height="6" rx="1" />
  <rect x="2" y="16" width="6" height="6" rx="1" />
  <rect x="9" y="2" width="6" height="6" rx="1" />
  <path d="M5 16v-3a1 1 0 0 1 1-1h12a1 1 0 0 1 1 1v3" />
  <path d="M12 12V8" /></g><g id="goal_total_output_icon" transform="translate(48 615) scale(1.875 1.875)" fill="none" stroke="#F36B00" stroke-width="2" stroke-linecap="round" stroke-linejoin="round"><circle cx="12" cy="12" r="10" />
  <circle cx="12" cy="12" r="6" />
  <circle cx="12" cy="12" r="2" /></g><g id="goal_competitiveness_icon" transform="translate(48 766) scale(1.875 1.875)" fill="none" stroke="#F36B00" stroke-width="2" stroke-linecap="round" stroke-linejoin="round"><path d="M10 14.66v1.626a2 2 0 0 1-.976 1.696A5 5 0 0 0 7 21.978" />
  <path d="M14 14.66v1.626a2 2 0 0 0 .976 1.696A5 5 0 0 1 17 21.978" />
  <path d="M18 9h1.5a1 1 0 0 0 0-5H18" />
  <path d="M4 22h16" />
  <path d="M6 9a6 6 0 0 0 12 0V3a1 1 0 0 0-1-1H7a1 1 0 0 0-1 1z" />
  <path d="M6 9H4.5a1 1 0 0 1 0-5H6" /></g><g id="executive_strategy_icon" transform="translate(411 173) scale(1.1666666666666667 1.1666666666666667)" fill="none" stroke="#1554D1" stroke-width="2" stroke-linecap="round" stroke-linejoin="round"><circle cx="12" cy="12" r="10" />
  <circle cx="12" cy="12" r="6" />
  <circle cx="12" cy="12" r="2" /></g><g id="executive_resources_icon" transform="translate(595 173) scale(1.1666666666666667 1.1666666666666667)" fill="none" stroke="#1554D1" stroke-width="2" stroke-linecap="round" stroke-linejoin="round"><path d="M16 21v-2a4 4 0 0 0-4-4H6a4 4 0 0 0-4 4v2" />
  <path d="M16 3.128a4 4 0 0 1 0 7.744" />
  <path d="M22 21v-2a4 4 0 0 0-3-3.87" />
  <circle cx="9" cy="7" r="4" /></g><g id="executive_decision_icon" transform="translate(779 173) scale(1.1666666666666667 1.1666666666666667)" fill="none" stroke="#1554D1" stroke-width="2" stroke-linecap="round" stroke-linejoin="round"><path d="M3 3v16a2 2 0 0 0 2 2h16" />
  <path d="M7 16c.5-2 1.5-7 4-7 2 0 2 3 4 3 2.5 0 4.5-5 5-7" /></g><g id="executive_promotion_icon" transform="translate(963 173) scale(1.1666666666666667 1.1666666666666667)" fill="none" stroke="#1554D1" stroke-width="2" stroke-linecap="round" stroke-linejoin="round"><path d="M12 15v5s3.03-.55 4-2c1.08-1.62 0-5 0-5" />
  <path d="M4.5 16.5c-1.5 1.26-2 5-2 5s3.74-.5 5-2c.71-.84.7-2.13-.09-2.91a2.18 2.18 0 0 0-2.91-.09" />
  <path d="M9 12a22 22 0 0 1 2-3.95A12.88 12.88 0 0 1 22 2c0 2.72-.78 7.5-6 11a22.4 22.4 0 0 1-4 2z" />
  <path d="M9 12H4s.55-3.03 2-4c1.62-1.08 5 .05 5 .05" /></g><g id="executive_supervision_icon" transform="translate(1147 173) scale(1.1666666666666667 1.1666666666666667)" fill="none" stroke="#1554D1" stroke-width="2" stroke-linecap="round" stroke-linejoin="round"><path d="M20 13c0 5-3.5 7.5-7.66 8.95a1 1 0 0 1-.67-.01C7.5 20.5 4 18 4 13V6a1 1 0 0 1 1-1c2 0 4.5-1.2 6.24-2.72a1.17 1.17 0 0 1 1.52 0C14.51 3.81 17 5 19 5a1 1 0 0 1 1 1z" />
  <path d="m9 12 2 2 4-4" /></g><g id="ops_scenario_icon" transform="translate(461 335) scale(1.0416666666666667 1.0416666666666667)" fill="none" stroke="#1554D1" stroke-width="2" stroke-linecap="round" stroke-linejoin="round"><path d="M16 21v-2a4 4 0 0 0-4-4H6a4 4 0 0 0-4 4v2" />
  <path d="M16 3.128a4 4 0 0 1 0 7.744" />
  <path d="M22 21v-2a4 4 0 0 0-3-3.87" />
  <circle cx="9" cy="7" r="4" /></g><g id="ops_tooling_icon" transform="translate(627 335) scale(1.0416666666666667 1.0416666666666667)" fill="none" stroke="#1554D1" stroke-width="2" stroke-linecap="round" stroke-linejoin="round"><path d="M14.7 6.3a1 1 0 0 0 0 1.4l1.6 1.6a1 1 0 0 0 1.4 0l3.106-3.105c.32-.322.863-.22.983.218a6 6 0 0 1-8.259 7.057l-7.91 7.91a1 1 0 0 1-2.999-3l7.91-7.91a6 6 0 0 1 7.057-8.259c.438.12.54.662.219.984z" /></g><g id="ops_knowledge_icon" transform="translate(793 335) scale(1.0416666666666667 1.0416666666666667)" fill="none" stroke="#1554D1" stroke-width="2" stroke-linecap="round" stroke-linejoin="round"><path d="M12 7v14" />
  <path d="M3 18a1 1 0 0 1-1-1V4a1 1 0 0 1 1-1h5a4 4 0 0 1 4 4 4 4 0 0 1 4-4h5a1 1 0 0 1 1 1v13a1 1 0 0 1-1 1h-6a3 3 0 0 0-3 3 3 3 0 0 0-3-3z" /></g><g id="ops_governance_icon" transform="translate(959 335) scale(1.0416666666666667 1.0416666666666667)" fill="none" stroke="#1554D1" stroke-width="2" stroke-linecap="round" stroke-linejoin="round"><path d="M20 13c0 5-3.5 7.5-7.66 8.95a1 1 0 0 1-.67-.01C7.5 20.5 4 18 4 13V6a1 1 0 0 1 1-1c2 0 4.5-1.2 6.24-2.72a1.17 1.17 0 0 1 1.52 0C14.51 3.81 17 5 19 5a1 1 0 0 1 1 1z" />
  <path d="m9 12 2 2 4-4" /></g><g id="ops_metrics_icon" transform="translate(1125 335) scale(1.0416666666666667 1.0416666666666667)" fill="none" stroke="#1554D1" stroke-width="2" stroke-linecap="round" stroke-linejoin="round"><path d="M12 16v5" />
  <path d="M16 14.639V21" />
  <path d="M20 10.656V21" />
  <path d="m22 3-8.646 8.646a.5.5 0 0 1-.708 0L9.354 8.354a.5.5 0 0 0-.707 0L2 15" />
  <path d="M4 18.463V21" />
  <path d="M8 14.656V21" /></g><g id="department_product_icon" transform="translate(365 504) scale(1.125 1.125)" fill="none" stroke="#1554D1" stroke-width="2" stroke-linecap="round" stroke-linejoin="round"><path d="M11 21.73a2 2 0 0 0 2 0l7-4A2 2 0 0 0 21 16V8a2 2 0 0 0-1-1.73l-7-4a2 2 0 0 0-2 0l-7 4A2 2 0 0 0 3 8v8a2 2 0 0 0 1 1.73z" />
  <path d="M12 22V12" />
  <polyline points="3.29 7 12 12 20.71 7" />
  <path d="m7.5 4.27 9 5.15" /></g><g id="department_engineering_icon" transform="translate(531 504) scale(1.125 1.125)" fill="none" stroke="#1554D1" stroke-width="2" stroke-linecap="round" stroke-linejoin="round"><path d="m18 16 4-4-4-4" />
  <path d="m6 8-4 4 4 4" />
  <path d="m14.5 4-5 16" /></g><g id="department_testing_icon" transform="translate(697 504) scale(1.125 1.125)" fill="none" stroke="#1554D1" stroke-width="2" stroke-linecap="round" stroke-linejoin="round"><path d="M20 13c0 5-3.5 7.5-7.66 8.95a1 1 0 0 1-.67-.01C7.5 20.5 4 18 4 13V6a1 1 0 0 1 1-1c2 0 4.5-1.2 6.24-2.72a1.17 1.17 0 0 1 1.52 0C14.51 3.81 17 5 19 5a1 1 0 0 1 1 1z" />
  <path d="m9 12 2 2 4-4" /></g><g id="department_marketing_icon" transform="translate(863 504) scale(1.125 1.125)" fill="none" stroke="#1554D1" stroke-width="2" stroke-linecap="round" stroke-linejoin="round"><path d="M11 6a13 13 0 0 0 8.4-2.8A1 1 0 0 1 21 4v12a1 1 0 0 1-1.6.8A13 13 0 0 0 11 14H5a2 2 0 0 1-2-2V8a2 2 0 0 1 2-2z" />
  <path d="M6 14a12 12 0 0 0 2.4 7.2 2 2 0 0 0 3.2-2.4A8 8 0 0 1 10 14" />
  <path d="M8 6v8" /></g><g id="department_delivery_icon" transform="translate(1029 504) scale(1.125 1.125)" fill="none" stroke="#1554D1" stroke-width="2" stroke-linecap="round" stroke-linejoin="round"><path d="M3 14h3a2 2 0 0 1 2 2v3a2 2 0 0 1-2 2H5a2 2 0 0 1-2-2v-7a9 9 0 0 1 18 0v7a2 2 0 0 1-2 2h-1a2 2 0 0 1-2-2v-3a2 2 0 0 1 2-2h3" /></g><g id="department_management_icon" transform="translate(1195 504) scale(1.125 1.125)" fill="none" stroke="#1554D1" stroke-width="2" stroke-linecap="round" stroke-linejoin="round"><path d="M16 21v-2a4 4 0 0 0-4-4H6a4 4 0 0 0-4 4v2" />
  <path d="M16 3.128a4 4 0 0 1 0 7.744" />
  <path d="M22 21v-2a4 4 0 0 0-3-3.87" />
  <circle cx="9" cy="7" r="4" /></g><g id="asset_prompt_icon" transform="translate(382 678) scale(1.25 1.25)" fill="none" stroke="#1554D1" stroke-width="2" stroke-linecap="round" stroke-linejoin="round"><path d="M2.992 16.342a2 2 0 0 1 .094 1.167l-1.065 3.29a1 1 0 0 0 1.236 1.168l3.413-.998a2 2 0 0 1 1.099.092 10 10 0 1 0-4.777-4.719" />
  <path d="M8 12h.01" />
  <path d="M12 12h.01" />
  <path d="M16 12h.01" /></g><g id="asset_agent_icon" transform="translate(487 678) scale(1.25 1.25)" fill="none" stroke="#1554D1" stroke-width="2" stroke-linecap="round" stroke-linejoin="round"><path d="M12 8V4H8" />
  <rect width="16" height="12" x="4" y="8" rx="2" />
  <path d="M2 14h2" />
  <path d="M20 14h2" />
  <path d="M15 13v2" />
  <path d="M9 13v2" /></g><g id="asset_skill_icon" transform="translate(592 678) scale(1.25 1.25)" fill="none" stroke="#1554D1" stroke-width="2" stroke-linecap="round" stroke-linejoin="round"><path d="m21.64 3.64-1.28-1.28a1.21 1.21 0 0 0-1.72 0L2.36 18.64a1.21 1.21 0 0 0 0 1.72l1.28 1.28a1.2 1.2 0 0 0 1.72 0L21.64 5.36a1.2 1.2 0 0 0 0-1.72" />
  <path d="m14 7 3 3" />
  <path d="M5 6v4" />
  <path d="M19 14v4" />
  <path d="M10 2v2" />
  <path d="M7 8H3" />
  <path d="M21 16h-4" />
  <path d="M11 3H9" /></g><g id="asset_knowledge_icon" transform="translate(697 678) scale(1.25 1.25)" fill="none" stroke="#1554D1" stroke-width="2" stroke-linecap="round" stroke-linejoin="round"><path d="M12.83 2.18a2 2 0 0 0-1.66 0L2.6 6.08a1 1 0 0 0 0 1.83l8.58 3.91a2 2 0 0 0 1.66 0l8.58-3.9a1 1 0 0 0 0-1.83z" />
  <path d="M2 12a1 1 0 0 0 .58.91l8.6 3.91a2 2 0 0 0 1.65 0l8.58-3.9A1 1 0 0 0 22 12" />
  <path d="M2 17a1 1 0 0 0 .58.91l8.6 3.91a2 2 0 0 0 1.65 0l8.58-3.9A1 1 0 0 0 22 17" /></g><g id="asset_sop_icon" transform="translate(802 678) scale(1.25 1.25)" fill="none" stroke="#1554D1" stroke-width="2" stroke-linecap="round" stroke-linejoin="round"><rect width="8" height="8" x="3" y="3" rx="2" />
  <path d="M7 11v4a2 2 0 0 0 2 2h4" />
  <rect width="8" height="8" x="13" y="13" rx="2" /></g><g id="asset_template_icon" transform="translate(907 678) scale(1.25 1.25)" fill="none" stroke="#1554D1" stroke-width="2" stroke-linecap="round" stroke-linejoin="round"><path d="M6 22a2 2 0 0 1-2-2V4a2 2 0 0 1 2-2h8a2.4 2.4 0 0 1 1.704.706l3.588 3.588A2.4 2.4 0 0 1 20 8v12a2 2 0 0 1-2 2z" />
  <path d="M14 2v5a1 1 0 0 0 1 1h5" />
  <path d="M10 9H8" />
  <path d="M16 13H8" />
  <path d="M16 17H8" /></g><g id="asset_case_icon" transform="translate(1012 678) scale(1.25 1.25)" fill="none" stroke="#1554D1" stroke-width="2" stroke-linecap="round" stroke-linejoin="round"><path d="m6 14 1.5-2.9A2 2 0 0 1 9.24 10H20a2 2 0 0 1 1.94 2.5l-1.54 6a2 2 0 0 1-1.95 1.5H4a2 2 0 0 1-2-2V5a2 2 0 0 1 2-2h3.9a2 2 0 0 1 1.69.9l.81 1.2a2 2 0 0 0 1.67.9H18a2 2 0 0 1 2 2v2" /></g><g id="asset_evaluation_icon" transform="translate(1117 678) scale(1.25 1.25)" fill="none" stroke="#1554D1" stroke-width="2" stroke-linecap="round" stroke-linejoin="round"><path d="M12 16v5" />
  <path d="M16 14.639V21" />
  <path d="M20 10.656V21" />
  <path d="m22 3-8.646 8.646a.5.5 0 0 1-.708 0L9.354 8.354a.5.5 0 0 0-.707 0L2 15" />
  <path d="M4 18.463V21" />
  <path d="M8 14.656V21" /></g><g id="asset_security_icon" transform="translate(1222 678) scale(1.25 1.25)" fill="none" stroke="#1554D1" stroke-width="2" stroke-linecap="round" stroke-linejoin="round"><path d="M20 13c0 5-3.5 7.5-7.66 8.95a1 1 0 0 1-.67-.01C7.5 20.5 4 18 4 13V6a1 1 0 0 1 1-1c2 0 4.5-1.2 6.24-2.72a1.17 1.17 0 0 1 1.52 0C14.51 3.81 17 5 19 5a1 1 0 0 1 1 1z" />
  <path d="m9 12 2 2 4-4" /></g><g id="kpi_time_icon" transform="translate(377 817) scale(1.25 1.25)" fill="none" stroke="#1554D1" stroke-width="2" stroke-linecap="round" stroke-linejoin="round"><circle cx="12" cy="12" r="10" />
  <path d="M12 6v6h4" /></g><g id="kpi_quality_icon" transform="translate(543 817) scale(1.25 1.25)" fill="none" stroke="#1554D1" stroke-width="2" stroke-linecap="round" stroke-linejoin="round"><path d="M3.85 8.62a4 4 0 0 1 4.78-4.77 4 4 0 0 1 6.74 0 4 4 0 0 1 4.78 4.78 4 4 0 0 1 0 6.74 4 4 0 0 1-4.77 4.78 4 4 0 0 1-6.75 0 4 4 0 0 1-4.78-4.77 4 4 0 0 1 0-6.76Z" />
  <path d="m9 12 2 2 4-4" /></g><g id="kpi_cycle_icon" transform="translate(709 817) scale(1.25 1.25)" fill="none" stroke="#1554D1" stroke-width="2" stroke-linecap="round" stroke-linejoin="round"><path d="M8 2v4" />
  <path d="M16 2v4" />
  <rect width="18" height="18" x="3" y="4" rx="2" />
  <path d="M3 10h18" />
  <path d="M8 14h.01" />
  <path d="M12 14h.01" />
  <path d="M16 14h.01" />
  <path d="M8 18h.01" />
  <path d="M12 18h.01" />
  <path d="M16 18h.01" /></g><g id="kpi_reuse_icon" transform="translate(875 817) scale(1.25 1.25)" fill="none" stroke="#1554D1" stroke-width="2" stroke-linecap="round" stroke-linejoin="round"><path d="M3 12a9 9 0 0 1 9-9 9.75 9.75 0 0 1 6.74 2.74L21 8" />
  <path d="M21 3v5h-5" />
  <path d="M21 12a9 9 0 0 1-9 9 9.75 9.75 0 0 1-6.74-2.74L3 16" />
  <path d="M8 16H3v5" /></g><g id="kpi_cost_icon" transform="translate(1041 817) scale(1.25 1.25)" fill="none" stroke="#1554D1" stroke-width="2" stroke-linecap="round" stroke-linejoin="round"><path d="M3.85 8.62a4 4 0 0 1 4.78-4.77 4 4 0 0 1 6.74 0 4 4 0 0 1 4.78 4.78 4 4 0 0 1 0 6.74 4 4 0 0 1-4.77 4.78 4 4 0 0 1-6.75 0 4 4 0 0 1-4.78-4.77 4 4 0 0 1 0-6.76Z" />
  <path d="M16 8h-6a2 2 0 1 0 0 4h4a2 2 0 1 1 0 4H8" />
  <path d="M12 18V6" /></g><g id="kpi_response_icon" transform="translate(1207 817) scale(1.25 1.25)" fill="none" stroke="#1554D1" stroke-width="2" stroke-linecap="round" stroke-linejoin="round"><path d="M16 10a2 2 0 0 1-2 2H6.828a2 2 0 0 0-1.414.586l-2.202 2.202A.71.71 0 0 1 2 14.286V4a2 2 0 0 1 2-2h10a2 2 0 0 1 2 2z" />
  <path d="M20 9a2 2 0 0 1 2 2v10.286a.71.71 0 0 1-1.212.502l-2.202-2.202A2 2 0 0 0 17.172 19H10a2 2 0 0 1-2-2v-1" /></g><g id="final_goal_icon" transform="translate(455 878) scale(1.1666666666666667 1.1666666666666667)" fill="none" stroke="#FFFFFF" stroke-width="2" stroke-linecap="round" stroke-linejoin="round"><circle cx="12" cy="12" r="10" />
  <circle cx="12" cy="12" r="6" />
  <circle cx="12" cy="12" r="2" /></g><g id="mechanism_collect_icon" transform="translate(1444 165) scale(1.75 1.75)" fill="none" stroke="#078C93" stroke-width="2" stroke-linecap="round" stroke-linejoin="round"><path d="M2 5h20" />
  <path d="M6 12h12" />
  <path d="M9 19h6" /></g><g id="mechanism_evaluate_icon" transform="translate(1444 253) scale(1.75 1.75)" fill="none" stroke="#078C93" stroke-width="2" stroke-linecap="round" stroke-linejoin="round"><path d="M12 3v18" />
  <path d="m19 8 3 8a5 5 0 0 1-6 0zV7" />
  <path d="M3 7h1a17 17 0 0 0 8-2 17 17 0 0 0 8 2h1" />
  <path d="m5 8 3 8a5 5 0 0 1-6 0zV7" />
  <path d="M7 21h10" /></g><g id="mechanism_pilot_icon" transform="translate(1444 341) scale(1.75 1.75)" fill="none" stroke="#078C93" stroke-width="2" stroke-linecap="round" stroke-linejoin="round"><path d="M14 2v6a2 2 0 0 0 .245.96l5.51 10.08A2 2 0 0 1 18 22H6a2 2 0 0 1-1.755-2.96l5.51-10.08A2 2 0 0 0 10 8V2" />
  <path d="M6.453 15h11.094" />
  <path d="M8.5 2h7" /></g><g id="mechanism_asset_icon" transform="translate(1444 429) scale(1.75 1.75)" fill="none" stroke="#078C93" stroke-width="2" stroke-linecap="round" stroke-linejoin="round"><ellipse cx="12" cy="5" rx="9" ry="3" />
  <path d="M3 5V19A9 3 0 0 0 21 19V5" />
  <path d="M3 12A9 3 0 0 0 21 12" /></g><g id="mechanism_replicate_icon" transform="translate(1444 517) scale(1.75 1.75)" fill="none" stroke="#078C93" stroke-width="2" stroke-linecap="round" stroke-linejoin="round"><path d="M14.536 21.686a.5.5 0 0 0 .937-.024l6.5-19a.496.496 0 0 0-.635-.635l-19 6.5a.5.5 0 0 0-.024.937l7.93 3.18a2 2 0 0 1 1.112 1.11z" />
  <path d="m21.854 2.147-10.94 10.939" /></g><g id="mechanism_review_icon" transform="translate(1444 605) scale(1.75 1.75)" fill="none" stroke="#078C93" stroke-width="2" stroke-linecap="round" stroke-linejoin="round"><path d="M12 16v5" />
  <path d="M16 14.639V21" />
  <path d="M20 10.656V21" />
  <path d="m22 3-8.646 8.646a.5.5 0 0 1-.708 0L9.354 8.354a.5.5 0 0 0-.707 0L2 15" />
  <path d="M4 18.463V21" />
  <path d="M8 14.656V21" /></g><g id="mechanism_report_icon" transform="translate(1444 693) scale(1.75 1.75)" fill="none" stroke="#078C93" stroke-width="2" stroke-linecap="round" stroke-linejoin="round"><circle cx="12" cy="8" r="5" />
  <path d="M20 21a8 8 0 0 0-16 0" /></g><g id="weekly_sync_icon" transform="translate(1452 778) scale(1.5833333333333333 1.5833333333333333)" fill="none" stroke="#078C93" stroke-width="2" stroke-linecap="round" stroke-linejoin="round"><path d="M8 2v4" />
  <path d="M16 2v4" />
  <rect width="18" height="18" x="3" y="4" rx="2" />
  <path d="M3 10h18" />
  <path d="M8 14h.01" />
  <path d="M12 14h.01" />
  <path d="M16 14h.01" />
  <path d="M8 18h.01" />
  <path d="M12 18h.01" />
  <path d="M16 18h.01" /></g><text id="page_title" x="850.0" y="58" text-anchor="middle" font-family="Microsoft YaHei" font-size="48" font-weight="700" fill="#0A1833"><tspan x="850.0" dy="0">AI 提质增效运营体系架构图</tspan></text><text id="page_subtitle" x="840.0" y="95" text-anchor="middle" font-family="Microsoft YaHei" font-size="23" font-weight="400" fill="#32466C"><tspan x="840.0" dy="0">适用于百人规模科技公司的跨部门 AI 赋能推进模式</tspan></text><text id="core_goals_header_text" x="131.0" y="130" text-anchor="middle" font-family="Microsoft YaHei" font-size="25" font-weight="700" fill="#FFFFFF"><tspan x="131.0" dy="0">核心目标</tspan></text><text id="goal_dev_efficiency_text" x="165.0" y="206" text-anchor="middle" font-family="Microsoft YaHei" font-size="19" font-weight="700" fill="#151515"><tspan x="165.0" dy="0">1. 提升</tspan><tspan x="165.0" dy="25">开发效率</tspan></text><text id="goal_quality_growth_text" x="165.0" y="351" text-anchor="middle" font-family="Microsoft YaHei" font-size="19" font-weight="700" fill="#151515"><tspan x="165.0" dy="0">2. 提质增效</tspan></text><text id="goal_org_structure_text" x="165.0" y="487" text-anchor="middle" font-family="Microsoft YaHei" font-size="19" font-weight="700" fill="#151515"><tspan x="165.0" dy="0">3. 优化</tspan><tspan x="165.0" dy="25">组织结构</tspan></text><text id="goal_total_output_text" x="165.0" y="631" text-anchor="middle" font-family="Microsoft YaHei" font-size="19" font-weight="700" fill="#151515"><tspan x="165.0" dy="0">4. 提高</tspan><tspan x="165.0" dy="25">整体产出</tspan></text><text id="goal_competitiveness_text" x="165.0" y="782" text-anchor="middle" font-family="Microsoft YaHei" font-size="19" font-weight="700" fill="#151515"><tspan x="165.0" dy="0">5. 增强公司</tspan><tspan x="165.0" dy="25">竞争力</tspan></text><text id="step_1_number" x="308.5" y="142" text-anchor="middle" font-family="Microsoft YaHei" font-size="26" font-weight="700" fill="#FFFFFF"><tspan x="308.5" dy="0">1</tspan></text><text id="step_2_number" x="308.5" y="279" text-anchor="middle" font-family="Microsoft YaHei" font-size="26" font-weight="700" fill="#FFFFFF"><tspan x="308.5" dy="0">2</tspan></text><text id="step_3_number" x="308.5" y="491" text-anchor="middle" font-family="Microsoft YaHei" font-size="26" font-weight="700" fill="#FFFFFF"><tspan x="308.5" dy="0">3</tspan></text><text id="step_4_number" x="308.5" y="691" text-anchor="middle" font-family="Microsoft YaHei" font-size="26" font-weight="700" fill="#FFFFFF"><tspan x="308.5" dy="0">4</tspan></text><text id="step_5_number" x="308.5" y="824" text-anchor="middle" font-family="Microsoft YaHei" font-size="26" font-weight="700" fill="#FFFFFF"><tspan x="308.5" dy="0">5</tspan></text><text id="executive_title" x="850.0" y="149" text-anchor="middle" font-family="Microsoft YaHei" font-size="30" font-weight="700" fill="#FFFFFF"><tspan x="850.0" dy="0">公司最高管理层 / 经营管理层</tspan></text><text id="executive_strategy_text" x="500.0" y="188" text-anchor="middle" font-family="Microsoft YaHei" font-size="17" font-weight="700" fill="#141414"><tspan x="500.0" dy="0">战略牵引</tspan></text><text id="executive_resources_text" x="684.0" y="188" text-anchor="middle" font-family="Microsoft YaHei" font-size="17" font-weight="700" fill="#141414"><tspan x="684.0" dy="0">资源协调</tspan></text><text id="executive_decision_text" x="868.0" y="188" text-anchor="middle" font-family="Microsoft YaHei" font-size="17" font-weight="700" fill="#141414"><tspan x="868.0" dy="0">决策支持</tspan></text><text id="executive_promotion_text" x="1052.0" y="188" text-anchor="middle" font-family="Microsoft YaHei" font-size="17" font-weight="700" fill="#141414"><tspan x="1052.0" dy="0">重点推进</tspan></text><text id="executive_supervision_text" x="1236.0" y="188" text-anchor="middle" font-family="Microsoft YaHei" font-size="17" font-weight="700" fill="#141414"><tspan x="1236.0" dy="0">结果督导</tspan></text><text id="ops_title" x="835.0" y="289" text-anchor="middle" font-family="Microsoft YaHei" font-size="31" font-weight="700" fill="#FFFFFF"><tspan x="835.0" dy="0">AI 赋能运营小组</tspan></text><text id="ops_subtitle" x="840.0" y="317" text-anchor="middle" font-family="Microsoft YaHei" font-size="19" font-weight="700" fill="#FFFFFF"><tspan x="840.0" dy="0">统一规划 · 场景运营 · 工具赋能 · 知识沉淀 · 指标复盘</tspan></text><text id="direct_to_top_text" x="1174.0" y="281" text-anchor="middle" font-family="Microsoft YaHei" font-size="16" font-weight="700" fill="#FFFFFF"><tspan x="1174.0" dy="0">直连高层</tspan></text><text id="weekly_review_text" x="416.0" y="410" text-anchor="middle" font-family="Microsoft YaHei" font-size="15" font-weight="700" fill="#FFFFFF"><tspan x="416.0" dy="0">每周复盘</tspan></text><text id="ops_scenario_title" x="490" y="348" text-anchor="start" font-family="Microsoft YaHei" font-size="14" font-weight="700" fill="#1554D1"><tspan x="490" dy="0">A. 场景运营</tspan></text><text id="ops_scenario_body" x="473" y="374" text-anchor="start" font-family="Microsoft YaHei" font-size="13" font-weight="400" fill="#111111"><tspan x="473" dy="0">• 场景征集</tspan><tspan x="473" dy="18">• 优先级排序</tspan><tspan x="473" dy="18">• 试点推进</tspan></text><text id="ops_tooling_title" x="656" y="348" text-anchor="start" font-family="Microsoft YaHei" font-size="14" font-weight="700" fill="#1554D1"><tspan x="656" dy="0">B. 工具与平台</tspan></text><text id="ops_tooling_body" x="639" y="374" text-anchor="start" font-family="Microsoft YaHei" font-size="13" font-weight="400" fill="#111111"><tspan x="639" dy="0">• 模型接入</tspan><tspan x="639" dy="18">• 账号管理</tspan><tspan x="639" dy="18">• 工具选型</tspan></text><text id="ops_knowledge_title" x="822" y="348" text-anchor="start" font-family="Microsoft YaHei" font-size="14" font-weight="700" fill="#1554D1"><tspan x="822" dy="0">C. 知识与资产</tspan></text><text id="ops_knowledge_body" x="805" y="374" text-anchor="start" font-family="Microsoft YaHei" font-size="13" font-weight="400" fill="#111111"><tspan x="805" dy="0">• 知识库</tspan><tspan x="805" dy="18">• Prompt 库</tspan><tspan x="805" dy="18">• Agent / Skill</tspan></text><text id="ops_governance_title" x="988" y="348" text-anchor="start" font-family="Microsoft YaHei" font-size="14" font-weight="700" fill="#1554D1"><tspan x="988" dy="0">D. 流程与规范</tspan></text><text id="ops_governance_body" x="971" y="374" text-anchor="start" font-family="Microsoft YaHei" font-size="13" font-weight="400" fill="#111111"><tspan x="971" dy="0">• 使用规范</tspan><tspan x="971" dy="18">• 安全边界</tspan><tspan x="971" dy="18">• 审核机制</tspan></text><text id="ops_metrics_title" x="1154" y="348" text-anchor="start" font-family="Microsoft YaHei" font-size="14" font-weight="700" fill="#1554D1"><tspan x="1154" dy="0">E. 指标与汇报</tspan></text><text id="ops_metrics_body" x="1137" y="374" text-anchor="start" font-family="Microsoft YaHei" font-size="13" font-weight="400" fill="#111111"><tspan x="1137" dy="0">• 节省工时</tspan><tspan x="1137" dy="18">• 质量提升</tspan><tspan x="1137" dy="18">• 周报复盘</tspan></text><text id="matrix_label_text" x="415.0" y="479" text-anchor="middle" font-family="Microsoft YaHei" font-size="16" font-weight="700" fill="#FFFFFF"><tspan x="415.0" dy="0">部门代表矩阵</tspan></text><text id="matrix_assignment" x="845.0" y="480" text-anchor="middle" font-family="Microsoft YaHei" font-size="17" font-weight="700" fill="#1554D1"><tspan x="845.0" dy="0">各部门派 AI 代表进入小组</tspan></text><text id="department_product_title" x="400" y="520" text-anchor="start" font-family="Microsoft YaHei" font-size="17" font-weight="700" fill="#1554D1"><tspan x="400" dy="0">产品</tspan></text><text id="department_product_usage_label" x="356" y="550" text-anchor="start" font-family="Microsoft YaHei" font-size="13" font-weight="700" fill="#1554D1"><tspan x="356" dy="0">怎么用：</tspan></text><text id="department_product_usage" x="356" y="567" text-anchor="start" font-family="Microsoft YaHei" font-size="12" font-weight="400" fill="#111111"><tspan x="356" dy="0">需求分析 / PRD /</tspan><tspan x="356" dy="15">竞品分析</tspan></text><text id="department_product_output_label" x="356" y="605" text-anchor="start" font-family="Microsoft YaHei" font-size="13" font-weight="700" fill="#1554D1"><tspan x="356" dy="0">产出：</tspan></text><text id="department_product_output" x="356" y="621" text-anchor="start" font-family="Microsoft YaHei" font-size="12" font-weight="400" fill="#111111"><tspan x="356" dy="0">PRD 模板 / FAQ</tspan></text><text id="department_engineering_title" x="566" y="520" text-anchor="start" font-family="Microsoft YaHei" font-size="17" font-weight="700" fill="#1554D1"><tspan x="566" dy="0">研发</tspan></text><text id="department_engineering_usage_label" x="522" y="550" text-anchor="start" font-family="Microsoft YaHei" font-size="13" font-weight="700" fill="#1554D1"><tspan x="522" dy="0">怎么用：</tspan></text><text id="department_engineering_usage" x="522" y="567" text-anchor="start" font-family="Microsoft YaHei" font-size="12" font-weight="400" fill="#111111"><tspan x="522" dy="0">代码生成 / Bug 定位 /</tspan><tspan x="522" dy="15">单测</tspan></text><text id="department_engineering_output_label" x="522" y="605" text-anchor="start" font-family="Microsoft YaHei" font-size="13" font-weight="700" fill="#1554D1"><tspan x="522" dy="0">产出：</tspan></text><text id="department_engineering_output" x="522" y="621" text-anchor="start" font-family="Microsoft YaHei" font-size="12" font-weight="400" fill="#111111"><tspan x="522" dy="0">研发 Prompt / 规范</tspan></text><text id="department_testing_title" x="732" y="520" text-anchor="start" font-family="Microsoft YaHei" font-size="17" font-weight="700" fill="#1554D1"><tspan x="732" dy="0">测试</tspan></text><text id="department_testing_usage_label" x="688" y="550" text-anchor="start" font-family="Microsoft YaHei" font-size="13" font-weight="700" fill="#1554D1"><tspan x="688" dy="0">怎么用：</tspan></text><text id="department_testing_usage" x="688" y="567" text-anchor="start" font-family="Microsoft YaHei" font-size="12" font-weight="400" fill="#111111"><tspan x="688" dy="0">用例生成 / 回归验证 /</tspan><tspan x="688" dy="15">缺陷分析</tspan></text><text id="department_testing_output_label" x="688" y="605" text-anchor="start" font-family="Microsoft YaHei" font-size="13" font-weight="700" fill="#1554D1"><tspan x="688" dy="0">产出：</tspan></text><text id="department_testing_output" x="688" y="621" text-anchor="start" font-family="Microsoft YaHei" font-size="12" font-weight="400" fill="#111111"><tspan x="688" dy="0">测试用例库 / 报告模板</tspan></text><text id="department_marketing_title" x="898" y="520" text-anchor="start" font-family="Microsoft YaHei" font-size="17" font-weight="700" fill="#1554D1"><tspan x="898" dy="0">营销</tspan></text><text id="department_marketing_usage_label" x="854" y="550" text-anchor="start" font-family="Microsoft YaHei" font-size="13" font-weight="700" fill="#1554D1"><tspan x="854" dy="0">怎么用：</tspan></text><text id="department_marketing_usage" x="854" y="567" text-anchor="start" font-family="Microsoft YaHei" font-size="12" font-weight="400" fill="#111111"><tspan x="854" dy="0">方案材料 / PPT /</tspan><tspan x="854" dy="15">内容生产</tspan></text><text id="department_marketing_output_label" x="854" y="605" text-anchor="start" font-family="Microsoft YaHei" font-size="13" font-weight="700" fill="#1554D1"><tspan x="854" dy="0">产出：</tspan></text><text id="department_marketing_output" x="854" y="621" text-anchor="start" font-family="Microsoft YaHei" font-size="12" font-weight="400" fill="#111111"><tspan x="854" dy="0">案例库 / 营销模板</tspan></text><text id="department_delivery_title" x="1064" y="520" text-anchor="start" font-family="Microsoft YaHei" font-size="17" font-weight="700" fill="#1554D1"><tspan x="1064" dy="0">服务与交付</tspan></text><text id="department_delivery_usage_label" x="1020" y="550" text-anchor="start" font-family="Microsoft YaHei" font-size="13" font-weight="700" fill="#1554D1"><tspan x="1020" dy="0">怎么用：</tspan></text><text id="department_delivery_usage" x="1020" y="567" text-anchor="start" font-family="Microsoft YaHei" font-size="12" font-weight="400" fill="#111111"><tspan x="1020" dy="0">客户答复 / 故障分析 /</tspan><tspan x="1020" dy="15">部署方案</tspan></text><text id="department_delivery_output_label" x="1020" y="605" text-anchor="start" font-family="Microsoft YaHei" font-size="13" font-weight="700" fill="#1554D1"><tspan x="1020" dy="0">产出：</tspan></text><text id="department_delivery_output" x="1020" y="621" text-anchor="start" font-family="Microsoft YaHei" font-size="12" font-weight="400" fill="#111111"><tspan x="1020" dy="0">服务知识库 / SOP</tspan></text><text id="department_management_title" x="1230" y="520" text-anchor="start" font-family="Microsoft YaHei" font-size="17" font-weight="700" fill="#1554D1"><tspan x="1230" dy="0">管理运营</tspan></text><text id="department_management_usage_label" x="1186" y="550" text-anchor="start" font-family="Microsoft YaHei" font-size="13" font-weight="700" fill="#1554D1"><tspan x="1186" dy="0">怎么用：</tspan></text><text id="department_management_usage" x="1186" y="567" text-anchor="start" font-family="Microsoft YaHei" font-size="12" font-weight="400" fill="#111111"><tspan x="1186" dy="0">周报 / 纪要 /</tspan><tspan x="1186" dy="15">项目同步</tspan></text><text id="department_management_output_label" x="1186" y="605" text-anchor="start" font-family="Microsoft YaHei" font-size="13" font-weight="700" fill="#1554D1"><tspan x="1186" dy="0">产出：</tspan></text><text id="department_management_output" x="1186" y="621" text-anchor="start" font-family="Microsoft YaHei" font-size="12" font-weight="400" fill="#111111"><tspan x="1186" dy="0">看板 / 管理模板</tspan></text><text id="assets_side_title" x="314.0" y="714" text-anchor="middle" font-family="Microsoft YaHei" font-size="17" font-weight="700" fill="#1554D1"><tspan x="314.0" dy="0">AI资产</tspan><tspan x="314.0" dy="24">沉淀层</tspan></text><text id="asset_prompt_text" x="398.0" y="724" text-anchor="middle" font-family="Microsoft YaHei" font-size="13" font-weight="700" fill="#111111"><tspan x="398.0" dy="0">Prompt 库</tspan></text><text id="asset_agent_text" x="503.0" y="724" text-anchor="middle" font-family="Microsoft YaHei" font-size="13" font-weight="700" fill="#111111"><tspan x="503.0" dy="0">Agent 库</tspan></text><text id="asset_skill_text" x="608.0" y="724" text-anchor="middle" font-family="Microsoft YaHei" font-size="13" font-weight="700" fill="#111111"><tspan x="608.0" dy="0">Skill 库</tspan></text><text id="asset_knowledge_text" x="713.0" y="724" text-anchor="middle" font-family="Microsoft YaHei" font-size="13" font-weight="700" fill="#111111"><tspan x="713.0" dy="0">知识库</tspan></text><text id="asset_sop_text" x="818.0" y="724" text-anchor="middle" font-family="Microsoft YaHei" font-size="13" font-weight="700" fill="#111111"><tspan x="818.0" dy="0">SOP 流程库</tspan></text><text id="asset_template_text" x="923.0" y="724" text-anchor="middle" font-family="Microsoft YaHei" font-size="13" font-weight="700" fill="#111111"><tspan x="923.0" dy="0">模板库</tspan></text><text id="asset_case_text" x="1028.0" y="724" text-anchor="middle" font-family="Microsoft YaHei" font-size="13" font-weight="700" fill="#111111"><tspan x="1028.0" dy="0">案例库</tspan></text><text id="asset_evaluation_text" x="1133.0" y="724" text-anchor="middle" font-family="Microsoft YaHei" font-size="13" font-weight="700" fill="#111111"><tspan x="1133.0" dy="0">评测集</tspan></text><text id="asset_security_text" x="1238.0" y="724" text-anchor="middle" font-family="Microsoft YaHei" font-size="13" font-weight="700" fill="#111111"><tspan x="1238.0" dy="0">安全规范库</tspan></text><text id="assets_transition" x="830.0" y="768" text-anchor="middle" font-family="Microsoft YaHei" font-size="20" font-weight="700" fill="#F36B00"><tspan x="830.0" dy="0">从个人提效走向组织提效</tspan></text><text id="outcomes_side_title" x="314.0" y="847" text-anchor="middle" font-family="Microsoft YaHei" font-size="17" font-weight="700" fill="#1554D1"><tspan x="314.0" dy="0">经营</tspan><tspan x="314.0" dy="24">成效层</tspan></text><text id="kpi_time_text" x="457.0" y="833" text-anchor="middle" font-family="Microsoft YaHei" font-size="15" font-weight="700" fill="#222222"><tspan x="457.0" dy="0">工时节省</tspan></text><text id="kpi_quality_text" x="623.0" y="833" text-anchor="middle" font-family="Microsoft YaHei" font-size="15" font-weight="700" fill="#222222"><tspan x="623.0" dy="0">质量提升</tspan></text><text id="kpi_cycle_text" x="789.0" y="833" text-anchor="middle" font-family="Microsoft YaHei" font-size="15" font-weight="700" fill="#222222"><tspan x="789.0" dy="0">周期缩短</tspan></text><text id="kpi_reuse_text" x="955.0" y="833" text-anchor="middle" font-family="Microsoft YaHei" font-size="15" font-weight="700" fill="#222222"><tspan x="955.0" dy="0">复用增强</tspan></text><text id="kpi_cost_text" x="1121.0" y="833" text-anchor="middle" font-family="Microsoft YaHei" font-size="15" font-weight="700" fill="#222222"><tspan x="1121.0" dy="0">成本下降</tspan></text><text id="kpi_response_text" x="1287.0" y="833" text-anchor="middle" font-family="Microsoft YaHei" font-size="15" font-weight="700" fill="#222222"><tspan x="1287.0" dy="0">客户响应加快</tspan></text><text id="final_goal_text" x="880.0" y="900" text-anchor="middle" font-family="Microsoft YaHei" font-size="23" font-weight="700" fill="#FFFFFF"><tspan x="880.0" dy="0">最终目标：沉淀公司级 AI 能力，形成持续可复制的竞争优势</tspan></text><text id="mechanism_header_text" x="1535.0" y="130" text-anchor="middle" font-family="Microsoft YaHei" font-size="23" font-weight="700" fill="#FFFFFF"><tspan x="1535.0" dy="0">运行机制</tspan></text><text id="mechanism_collect_text" x="1505" y="188" text-anchor="start" font-family="Microsoft YaHei" font-size="18" font-weight="700" fill="#111111"><tspan x="1505" dy="0">1. 场景收集</tspan></text><text id="mechanism_evaluate_text" x="1505" y="276" text-anchor="start" font-family="Microsoft YaHei" font-size="18" font-weight="700" fill="#111111"><tspan x="1505" dy="0">2. 价值评估</tspan></text><text id="mechanism_pilot_text" x="1505" y="364" text-anchor="start" font-family="Microsoft YaHei" font-size="18" font-weight="700" fill="#111111"><tspan x="1505" dy="0">3. 试点验证</tspan></text><text id="mechanism_asset_text" x="1505" y="452" text-anchor="start" font-family="Microsoft YaHei" font-size="18" font-weight="700" fill="#111111"><tspan x="1505" dy="0">4. 资产沉淀</tspan></text><text id="mechanism_replicate_text" x="1505" y="540" text-anchor="start" font-family="Microsoft YaHei" font-size="18" font-weight="700" fill="#111111"><tspan x="1505" dy="0">5. 推广复制</tspan></text><text id="mechanism_review_text" x="1505" y="628" text-anchor="start" font-family="Microsoft YaHei" font-size="18" font-weight="700" fill="#111111"><tspan x="1505" dy="0">6. 指标复盘</tspan></text><text id="mechanism_report_text" x="1505" y="716" text-anchor="start" font-family="Microsoft YaHei" font-size="18" font-weight="700" fill="#111111"><tspan x="1505" dy="0">7. 高层汇报</tspan></text><text id="weekly_sync_text" x="1558.0" y="788" text-anchor="middle" font-family="Microsoft YaHei" font-size="17" font-weight="700" fill="#006A78"><tspan x="1558.0" dy="0">每周召开一次</tspan><tspan x="1558.0" dy="25">全员同步会</tspan></text><text id="continuous_optimization_label" x="1369.0" y="430" text-anchor="middle" font-family="Microsoft YaHei" font-size="16" font-weight="700" fill="#1554D1"><tspan x="1369.0" dy="0">持续优化</tspan></text></svg>
